# xmcd
#
# Track frame offsets:
#	150
#	13341
#	21498
#	32694
#	44813
#	57771
#	66740
#	79083
#	91284
#	102492
#	114216
#	125990
#	141834
#	164353
#
# Disc length: 2340 seconds
#
# Revision: 0
# Processed by: cddbd v1.4PL0 Copyright (c) Steve Scherf et al.
# Submitted via: EasyCDDAExtractor 4.5.0.2
#
DISCID=cf09220e
DTITLE=Vincent Noack - Estréia
DYEAR=1995
DGENRE=Acoustic
TTITLE0=Tucan
TTITLE1=Gaivota
TTITLE2=Jogo preferido dos Golfinhos
TTITLE3=Altempestade
TTITLE4=Lembrar
TTITLE5=Impressão
TTITLE6=Impulso
TTITLE7=Manolo barosso
TTITLE8=Beduinen-Träume
TTITLE9=Viagem
TTITLE10=Dança
TTITLE11=Vueltas
TTITLE12=Acordar
TTITLE13=Despedida
EXTD=
EXTT0=
EXTT1=
EXTT2=
EXTT3=
EXTT4=
EXTT5=
EXTT6=
EXTT7=
EXTT8=
EXTT9=
EXTT10=
EXTT11=
EXTT12=
EXTT13=
PLAYORDER=
